<svg xmlns="http://www.w3.org/2000/svg" width="29.213" height="24.777" viewBox="0 0 29.213 24.777">
  <g id="chat" transform="translate(0 -0.002)">
    <g id="Group_180" data-name="Group 180" transform="translate(0 0.002)">
      <path id="Path_99" data-name="Path 99" d="M29.213,11.5a9.569,9.569,0,0,1-1.957,5.786,13.283,13.283,0,0,1-5.327,4.2,17.469,17.469,0,0,1-7.334,1.536,17.5,17.5,0,0,1-5.8-.966l.05.074L0,24.779a13.436,13.436,0,0,0,1.747-3.134,12.087,12.087,0,0,0,.78-2.614l.1-.942A9.726,9.726,0,0,1,0,11.5,9.516,9.516,0,0,1,1.957,5.725,13.345,13.345,0,0,1,7.272,1.538,17.386,17.386,0,0,1,14.594,0a17.469,17.469,0,0,1,7.334,1.536,13.329,13.329,0,0,1,5.327,4.187A9.516,9.516,0,0,1,29.213,11.5Zm-6.194,0a1.692,1.692,0,0,0-.52-1.239,1.72,1.72,0,0,0-1.264-.52A1.777,1.777,0,0,0,19.475,11.5,1.72,1.72,0,0,0,20,12.762a1.692,1.692,0,0,0,1.239.52A1.777,1.777,0,0,0,23.018,11.5Zm-6.194,0a1.692,1.692,0,0,0-.52-1.239,1.72,1.72,0,0,0-1.264-.52A1.777,1.777,0,0,0,13.281,11.5a1.72,1.72,0,0,0,.52,1.264,1.692,1.692,0,0,0,1.239.52A1.777,1.777,0,0,0,16.824,11.5Zm-6.194,0a1.692,1.692,0,0,0-.52-1.239,1.72,1.72,0,0,0-1.264-.52A1.777,1.777,0,0,0,7.086,11.5a1.72,1.72,0,0,0,.52,1.264,1.692,1.692,0,0,0,1.239.52A1.777,1.777,0,0,0,10.63,11.5Z" transform="translate(0 -0.002)" fill="#fff"/>
    </g>
  </g>
</svg>
