<svg xmlns="http://www.w3.org/2000/svg" width="31.599" height="28.06" viewBox="0 0 31.599 28.06">
  <g id="car" transform="translate(0 -5.375)">
    <path id="Path_97" data-name="Path 97" d="M27.978,7.1,31.6,17.636V31.707a1.837,1.837,0,0,1-1.728,1.728H28.06a1.837,1.837,0,0,1-1.728-1.728V29.9H5.266v1.81A1.652,1.652,0,0,1,4.732,32.9a1.652,1.652,0,0,1-1.193.535H1.728A1.652,1.652,0,0,1,.535,32.9,1.652,1.652,0,0,1,0,31.707V17.636L3.621,7.1A2.5,2.5,0,0,1,6.172,5.375H25.427A2.5,2.5,0,0,1,27.978,7.1ZM6.13,24.631a2.652,2.652,0,0,0,1.893-.741A2.445,2.445,0,0,0,8.8,22.038,2.669,2.669,0,0,0,6.13,19.364a2.445,2.445,0,0,0-1.851.782,2.652,2.652,0,0,0-.741,1.893A2.531,2.531,0,0,0,6.13,24.631Zm19.338,0a2.531,2.531,0,0,0,2.592-2.592,2.652,2.652,0,0,0-.741-1.893,2.445,2.445,0,0,0-1.851-.782,2.669,2.669,0,0,0-2.674,2.674,2.445,2.445,0,0,0,.782,1.851A2.652,2.652,0,0,0,25.468,24.631ZM3.538,15.908H28.06l-2.633-7.9H6.172Z" fill="#fff"/>
  </g>
</svg>
